<svg width="69" height="69" viewBox="0 0 69 69" fill="none" xmlns="http://www.w3.org/2000/svg">
<path d="M45.125 12.4138C44.0259 12.4138 42.9419 12.158 41.9588 11.6667L27.0413 4.20799C26.0581 3.7167 24.9741 3.46094 23.875 3.46094M45.125 12.4138C46.2241 12.4138 47.3081 12.158 48.2913 11.6667L61.2502 5.18549C61.7906 4.91547 62.391 4.78815 62.9945 4.81563C63.5979 4.84311 64.1843 5.02448 64.6979 5.34249C65.2115 5.66051 65.6352 6.1046 65.9287 6.63255C66.2223 7.1605 66.3759 7.75475 66.375 8.35882V53.5647C66.3747 54.2222 66.1913 54.8667 65.8453 55.4259C65.4994 55.9851 65.0047 56.437 64.4165 56.7309L48.2913 64.7953C47.3081 65.2866 46.2241 65.5423 45.125 65.5423C44.0259 65.5423 42.9419 65.2866 41.9588 64.7953L27.0413 57.3365C26.0581 56.8452 24.9741 56.5895 23.875 56.5895C22.7759 56.5895 21.6919 56.8452 20.7088 57.3365L7.7498 63.8178C7.20917 64.0879 6.60841 64.2152 6.00467 64.1876C5.40093 64.16 4.81431 63.9783 4.30063 63.6598C3.78695 63.3414 3.36331 62.8968 3.07001 62.3684C2.77671 61.84 2.62352 61.2453 2.62501 60.6409V15.4386C2.62536 14.7811 2.80876 14.1366 3.15468 13.5774C3.50059 13.0182 3.99535 12.5663 4.58355 12.2724L20.7088 4.20799C21.6919 3.7167 22.7759 3.46094 23.875 3.46094M45.125 12.4138L45.125 65.5387M23.875 3.46094L23.875 56.5859" stroke="#09090B" stroke-width="5" stroke-linecap="round" stroke-linejoin="round"/>
</svg>
