<svg width="51" height="62" viewBox="0 0 51 62" fill="none" xmlns="http://www.w3.org/2000/svg">
<path d="M48.1 33.785C48.1 47.81 38.2825 54.8225 26.6137 58.8897C26.0027 59.0968 25.3389 59.0869 24.7344 58.8617C13.0375 54.8225 3.22 47.81 3.22 33.785V14.15C3.22 13.406 3.51553 12.6926 4.04157 12.1665C4.56761 11.6405 5.28107 11.345 6.025 11.345C11.635 11.345 18.6475 7.97897 23.5282 3.71537C24.1225 3.20766 24.8784 2.92871 25.66 2.92871C26.4416 2.92871 27.1975 3.20766 27.7918 3.71537C32.7006 8.00702 39.685 11.345 45.295 11.345C46.0389 11.345 46.7524 11.6405 47.2784 12.1665C47.8045 12.6926 48.1 13.406 48.1 14.15V33.785Z" stroke="#09090B" stroke-width="5" stroke-linecap="round" stroke-linejoin="round"/>
</svg>
