<svg width="57" height="57" viewBox="0 0 57 57" fill="none" xmlns="http://www.w3.org/2000/svg">
<path d="M44.514 49.2868L39.465 26.2858L49.2825 16.4683C53.49 12.2608 54.8925 6.65076 53.49 3.84576C50.685 2.44326 45.075 3.84576 40.8675 8.05326L31.05 17.8708L8.049 12.8218C6.6465 12.5413 5.5245 13.1023 4.9635 14.2243L4.122 15.6268C3.561 17.0293 3.8415 18.4318 4.9635 19.2733L19.83 29.0908L14.22 37.5058H5.805L3 40.3108L11.415 45.9208L17.025 54.3358L19.83 51.5308V43.1158L28.245 37.5058L38.0625 52.3723C38.904 53.4943 40.3065 53.7748 41.709 53.2138L43.1115 52.6528C44.2335 51.8113 44.7945 50.6893 44.514 49.2868Z" stroke="#09090B" stroke-width="5" stroke-linecap="round" stroke-linejoin="round"/>
</svg>
