<svg width="59" height="59" viewBox="0 0 59 59" fill="none" xmlns="http://www.w3.org/2000/svg">
<path d="M2.60999 55.9049C2.60999 47.4899 7.79924 40.8701 16.8594 39.0749C23.6475 37.7285 30.66 33.4649 33.465 30.6599M27.8556 53.0999C22.9302 53.1148 18.1791 51.278 14.5445 47.9539C10.91 44.6297 8.65754 40.061 8.2339 35.1538C7.81025 30.2466 9.24637 25.3594 12.2574 21.4615C15.2685 17.5637 19.6345 14.9398 24.4896 14.1104C40.4781 11.0249 44.6856 9.56626 50.2956 2.60986C53.1006 8.21986 55.9056 14.3348 55.9056 25.0499C55.9056 40.4774 42.4977 53.0999 27.8556 53.0999Z" stroke="#09090B" stroke-width="5" stroke-linecap="round" stroke-linejoin="round"/>
</svg>
